HIERARCHY
ROOT joint_0
{
	OFFSET 0.000000 0.000000 0.000000
	CHANNELS 6 Xposition Yposition Zposition Zrotation Yrotation Xrotation 
	JOINT joint_1
	{
		OFFSET 6.004005 -1.946999 100.587036
		CHANNELS 3 Zrotation Yrotation Xrotation
		JOINT joint_2
		{
			OFFSET -4.601006 -0.824997 91.925903
			CHANNELS 3 Zrotation Yrotation Xrotation
			JOINT joint_3
			{
				OFFSET -5.420998 -1.130005 91.774048
				CHANNELS 3 Zrotation Yrotation Xrotation
				JOINT joint_4
				{
					OFFSET 4.308998 -3.777992 123.473999
					CHANNELS 3 Zrotation Yrotation Xrotation
					JOINT joint_5
					{
						OFFSET 25.565002 -6.305008 79.437988
						CHANNELS 3 Zrotation Yrotation Xrotation
						End Site
						{
							OFFSET 0.000000 0.000000 0.000000
						}
					}
				}
				JOINT joint_6
				{
					OFFSET -1.750000 -28.655998 68.557983
					CHANNELS 3 Zrotation Yrotation Xrotation
					JOINT joint_7
					{
						OFFSET -17.692001 -116.544006 -17.244019
						CHANNELS 3 Zrotation Yrotation Xrotation
						JOINT joint_8
						{
							OFFSET 27.063004 -23.640991 -266.895020
							CHANNELS 3 Zrotation Yrotation Xrotation
							JOINT joint_9
							{
								OFFSET 40.722000 -15.761017 -232.488953
								CHANNELS 3 Zrotation Yrotation Xrotation
								End Site
								{
									OFFSET 0.000000 0.000000 0.000000
								}
							}
						}
					}
				}
				JOINT joint_10
				{
					OFFSET 6.593002 24.457001 69.892944
					CHANNELS 3 Zrotation Yrotation Xrotation
					JOINT joint_11
					{
						OFFSET 24.311996 114.920002 -19.872925
						CHANNELS 3 Zrotation Yrotation Xrotation
						JOINT joint_12
						{
							OFFSET 21.081001 15.319000 -268.037964
							CHANNELS 3 Zrotation Yrotation Xrotation
							JOINT joint_13
							{
								OFFSET 27.794006 -8.947001 -234.744080
								CHANNELS 3 Zrotation Yrotation Xrotation
								End Site
								{
									OFFSET 0.000000 0.000000 0.000000
								}
							}
						}
					}
				}
			}
		}
	}
	JOINT joint_14
	{
		OFFSET -6.627998 -80.520004 -98.790039
		CHANNELS 3 Zrotation Yrotation Xrotation
		JOINT joint_15
		{
			OFFSET -43.638000 -13.751999 -502.538971
			CHANNELS 3 Zrotation Yrotation Xrotation
			JOINT joint_16
			{
				OFFSET -39.532999 -9.912994 -398.071007
				CHANNELS 3 Zrotation Yrotation Xrotation
				JOINT joint_17
				{
					OFFSET 174.940004 -34.660995 -75.688002
					CHANNELS 3 Zrotation Yrotation Xrotation
					End Site
					{
						OFFSET 0.000000 0.000000 0.000000
					}
				}
			}
		}
	}
	JOINT joint_18
	{
		OFFSET 12.591003 79.842003 -98.765015
		CHANNELS 3 Zrotation Yrotation Xrotation
		JOINT joint_19
		{
			OFFSET -39.080002 -1.297001 -503.101013
			CHANNELS 3 Zrotation Yrotation Xrotation
			JOINT joint_20
			{
				OFFSET -51.570000 -0.514000 -396.815987
				CHANNELS 3 Zrotation Yrotation Xrotation
				JOINT joint_21
				{
					OFFSET 178.987999 -11.521999 -73.244003
					CHANNELS 3 Zrotation Yrotation Xrotation
					End Site
					{
						OFFSET 0.000000 0.000000 0.000000
					}
				}
			}
		}
	}
}
MOTION
Frames: 12
Frame Time: 0.016667
58.767000 -123.588000 1095.094970 -0.744307 -1.458405 -0.999149 0.532797 1.327996 2.790357 0.353792 -0.262412 -0.637862 0.427900 0.339113 0.471606 0.151618 -0.619397 -0.623138 0.000000 0.000000 0.000000 0.033302 0.320562 0.344832 -0.179645 0.501826 -0.641025 -0.113869 -0.447827 -0.823950 0.000000 0.000000 0.000000 2.284290 -0.068224 -0.132886 -0.148376 -0.119142 -1.881410 0.184142 0.630633 1.779218 0.000000 0.000000 0.000000 -0.193271 0.993826 -0.271608 -0.410897 4.152386 1.242082 -0.088413 -2.254299 -0.484863 0.000000 0.000000 0.000000 1.932121 -0.821529 2.753366 2.095652 4.077502 0.546331 2.087008 -0.625246 0.810678 0.000000 0.000000 0.000000 
59.316000 -123.999000 1095.170040 -0.605311 -1.364521 -1.014142 0.714439 1.382256 2.756634 0.539610 -0.233605 -0.602562 0.608602 0.291794 0.436018 0.131490 -0.707966 -0.582626 0.000000 0.000000 0.000000 -0.597783 0.506724 0.474221 -0.195476 0.650875 -0.866577 -0.028065 -0.772234 -0.460210 0.000000 0.000000 0.000000 2.143559 -0.167449 -0.139175 -0.155489 -0.199996 -1.865164 0.183696 0.669601 1.791786 0.000000 0.000000 0.000000 -0.241695 0.968873 -0.232129 -0.456600 4.093434 1.260719 -0.131166 -2.259842 -0.504419 0.000000 0.000000 0.000000 1.870843 -0.892162 2.801359 2.040039 4.044143 0.526610 2.031513 -0.622856 0.788210 0.000000 0.000000 0.000000 
60.530000 -124.593000 1095.329960 -0.425373 -1.098662 -0.997103 0.879983 1.362311 2.694964 0.711598 -0.200472 -0.556877 0.774325 0.239181 0.394398 0.104740 -1.019937 -0.576715 0.000000 0.000000 0.000000 -1.073397 0.825153 0.509846 -0.212754 0.906531 -0.863551 0.043672 -1.290970 -0.251586 0.000000 0.000000 0.000000 2.107806 -0.212838 -0.027490 -0.150515 -0.197838 -1.944224 0.181078 0.525349 1.723683 0.000000 0.000000 0.000000 -0.297837 0.843508 -0.224781 -0.514813 3.939407 1.299604 -0.186838 -2.241897 -0.524907 0.000000 0.000000 0.000000 1.798200 -1.088637 2.839634 1.975034 3.950968 0.470048 1.961793 -0.599285 0.761347 0.000000 0.000000 0.000000 
62.853000 -125.421000 1095.605960 -0.205345 -0.506352 -0.911669 0.973739 1.185470 2.597807 0.814803 -0.161444 -0.497299 0.869699 0.177320 0.344770 0.068692 -1.795073 -0.657883 0.000000 0.000000 0.000000 -1.083699 1.400394 0.309747 -0.228155 1.361727 -0.267160 0.064680 -2.227488 -0.489979 0.000000 0.000000 0.000000 2.346516 -0.123077 0.339846 -0.117025 -0.003564 -2.235953 0.172514 -0.055068 1.462709 0.000000 0.000000 0.000000 -0.344524 0.537876 -0.302889 -0.574531 3.561327 1.391037 -0.245674 -2.173572 -0.536802 0.000000 0.000000 0.000000 1.712159 -1.518367 2.851215 1.900191 3.720641 0.338140 1.871692 -0.534144 0.728916 0.000000 0.000000 0.000000 
66.089000 -126.468000 1095.984990 0.060695 0.354608 -0.766458 1.027513 0.892550 2.466354 0.881350 -0.109618 -0.415364 0.925545 0.095531 0.276510 0.025489 -2.964273 -0.820670 0.000000 0.000000 0.000000 -0.787146 2.195069 -0.023883 -0.245008 1.994455 0.772827 0.048684 -3.541614 -1.069776 0.000000 0.000000 0.000000 2.811242 0.069175 0.901966 -0.064943 0.329704 -2.669911 0.152430 -0.981296 1.019341 0.000000 0.000000 0.000000 -0.385136 0.093080 -0.451295 -0.636487 2.982676 1.526222 -0.309190 -2.054571 -0.540684 0.000000 0.000000 0.000000 1.607390 -2.138184 2.843115 1.810370 3.368736 0.141716 1.758028 -0.428660 0.689457 0.000000 0.000000 0.000000 
69.775000 -127.623000 1096.428960 0.345638 1.230478 -0.618181 1.033892 0.557154 2.313667 0.900551 -0.066469 -0.355270 0.936602 0.021954 0.224900 -0.016026 -4.035552 -0.971514 0.000000 0.000000 0.000000 -0.389865 2.840436 -0.186336 -0.269113 2.561103 1.543773 0.010998 -4.437455 -1.599176 0.000000 0.000000 0.000000 3.242467 0.313471 1.356740 -0.020740 0.659058 -2.921560 0.122750 -1.730474 0.584465 0.000000 0.000000 0.000000 -0.469972 -0.436893 -0.560127 -0.741456 2.573462 1.607429 -0.416759 -1.917650 -0.560000 0.000000 0.000000 0.000000 1.537864 -2.794262 2.826367 1.754533 3.102378 -0.041378 1.678937 -0.263808 0.667795 0.000000 0.000000 0.000000 
73.844000 -128.856000 1096.928960 0.639760 1.985423 -0.503992 0.968381 0.163326 2.134110 0.846045 -0.053031 -0.361751 0.882208 -0.010710 0.229075 -0.054833 -4.650505 -1.014582 0.000000 0.000000 0.000000 0.038659 3.092971 0.005698 -0.307161 2.918209 1.506034 -0.023127 -4.322665 -1.738186 0.000000 0.000000 0.000000 3.482232 0.636980 1.483701 0.016091 0.943405 -2.768795 0.094336 -2.035638 0.282918 0.000000 0.000000 0.000000 -0.668227 -1.009613 -0.544373 -0.948333 2.499649 1.561107 -0.628729 -1.747610 -0.617765 0.000000 0.000000 0.000000 1.553524 -3.352642 2.818037 1.783317 2.941067 -0.197876 1.683545 0.044089 0.689385 0.000000 0.000000 0.000000 
78.475000 -130.210010 1097.500000 0.954527 2.716494 -0.401811 0.832878 -0.320086 1.926038 0.720652 -0.059659 -0.423785 0.763786 -0.011778 0.280459 -0.094311 -4.997168 -0.983056 0.000000 0.000000 0.000000 0.582319 3.094520 0.432382 -0.356320 3.161657 0.922910 -0.054612 -3.503724 -1.615937 0.000000 0.000000 0.000000 3.628346 1.061512 1.385190 0.055548 1.235393 -2.328036 0.068003 -2.097657 0.049168 0.000000 0.000000 0.000000 -0.962344 -1.645784 -0.442533 -1.242845 2.616046 1.422565 -0.931904 -1.527198 -0.704810 0.000000 0.000000 0.000000 1.634974 -3.871187 2.813371 1.879683 2.802606 -0.359421 1.750860 0.493509 0.745592 0.000000 0.000000 0.000000 
82.598000 -131.479000 1098.066040 1.245879 3.309126 -0.326353 0.714063 -0.639134 1.749511 0.610760 -0.058032 -0.462428 0.658357 -0.014167 0.313881 -0.121793 -5.225516 -0.959505 0.000000 0.000000 0.000000 1.061971 2.952028 0.781634 -0.388582 3.230153 0.387572 -0.120257 -2.397571 -1.583744 0.000000 0.000000 0.000000 3.529055 1.283753 1.271195 0.058165 1.355778 -1.875331 0.060053 -1.664422 0.073093 0.000000 0.000000 0.000000 -1.186560 -2.410660 -0.310487 -1.481591 3.289601 1.253336 -1.165148 -1.482707 -0.796294 0.000000 0.000000 0.000000 1.712676 -4.528536 2.757781 1.953816 3.233927 -0.337642 1.827341 0.700702 0.789715 0.000000 0.000000 0.000000 
85.192000 -132.502000 1098.635010 1.481417 3.670034 -0.290074 0.689216 -0.577827 1.641774 0.595335 -0.015232 -0.398323 0.635612 -0.043484 0.266566 -0.122053 -5.461497 -1.031703 0.000000 0.000000 0.000000 1.343570 2.702628 0.808451 -0.375843 3.024683 0.385223 -0.273417 -1.100407 -1.956066 0.000000 0.000000 0.000000 2.979665 1.018734 1.300385 -0.030123 1.127191 -1.628969 0.078550 -0.292890 0.578648 0.000000 0.000000 0.000000 -1.200423 -3.462244 -0.190717 -1.548811 5.022028 1.086241 -1.196733 -1.788143 -0.869609 0.000000 0.000000 0.000000 1.735282 -5.581180 2.569232 1.929643 4.892079 0.101533 1.885677 0.350228 0.789860 0.000000 0.000000 0.000000 
86.667000 -133.358990 1099.234990 1.671365 3.856415 -0.291121 0.728482 -0.256135 1.583661 0.645941 0.070011 -0.260972 0.670241 -0.087030 0.162871 -0.100678 -5.655139 -1.166684 0.000000 0.000000 0.000000 1.487660 2.307172 0.626570 -0.334311 2.569808 0.686558 -0.505918 0.548272 -2.594749 0.000000 0.000000 0.000000 2.030931 0.389533 1.383596 -0.214538 0.613712 -1.452114 0.095162 1.941387 1.451850 0.000000 0.000000 0.000000 -1.065153 -4.790893 -0.069287 -1.499408 7.665617 0.920013 -1.090047 -2.253621 -0.914303 0.000000 0.000000 0.000000 1.732341 -6.972679 2.265578 1.845658 7.554166 0.890273 1.968031 -0.291266 0.779611 0.000000 0.000000 0.000000 
88.385000 -134.141010 1099.610960 1.816230 3.936073 -0.324740 0.740851 0.096959 1.566330 0.666414 0.138684 -0.154514 0.677843 -0.120258 0.079095 -0.085719 -5.640480 -1.216988 0.000000 0.000000 0.000000 1.537786 1.886079 0.398300 -0.311470 2.089705 0.865887 -0.706960 1.818700 -3.167742 0.000000 0.000000 0.000000 1.168038 -0.233376 1.485908 -0.385001 0.077977 -1.187374 0.094221 3.864143 2.186010 0.000000 0.000000 0.000000 -0.922023 -5.884474 0.047976 -1.432388 10.083918 0.814033 -0.965315 -2.620733 -0.931691 0.000000 0.000000 0.000000 1.730924 -8.061582 2.037795 1.778935 9.861971 1.578209 2.068653 -0.811835 0.783632 0.000000 0.000000 0.000000 
